<?xml version="1.0" encoding="UTF-8"?>
<svg version="1.1" xmlns="http://www.w3.org/2000/svg" width="900" height="781">
<path d="M0 0 C1.37671875 0.30744141 1.37671875 0.30744141 2.78125 0.62109375 C15.85951972 4.03927788 31.00593742 11.8816796 40 22 C40.598125 22.556875 41.19625 23.11375 41.8125 23.6875 C43 25 43 25 43 27 C43.66 27 44.32 27 45 27 C55.60677481 44.03130588 58.99099142 61.04060137 54.76635742 80.97265625 C53.04170647 88.16155593 50.80575368 95.16097541 48 102 C47.54625 103.13179688 47.0925 104.26359375 46.625 105.4296875 C44.00453685 111.7761217 41.17874587 117.72340935 37.5234375 123.53515625 C34.81844999 127.91168732 32.43029355 132.46689927 30 137 C29.34 137 28.68 137 28 137 C27.9175 137.53625 27.835 138.0725 27.75 138.625 C26.964302 141.11304367 25.80544352 142.95006749 24.3125 145.07421875 C21.9349734 148.56267295 19.78580628 152.20228229 17.5859375 155.8046875 C17.06257812 156.52914062 16.53921875 157.25359375 16 158 C15.34 158 14.68 158 14 158 C14 158.99 14 159.98 14 161 C13.34 161 12.68 161 12 161 C11.79761719 161.66515625 11.59523438 162.3303125 11.38671875 163.015625 C9.47310309 167.13394152 6.71922272 170.28715552 3.8125 173.75 C2.62957351 175.18176741 1.4472765 176.61405515 0.265625 178.046875 C-0.30091797 178.73072266 -0.86746094 179.41457031 -1.45117188 180.11914062 C-4.99012072 184.41675442 -8.41155399 188.80942213 -11.6796875 193.31640625 C-12.21851563 194.05761719 -12.75734375 194.79882812 -13.3125 195.5625 C-13.78300781 196.22378906 -14.25351562 196.88507813 -14.73828125 197.56640625 C-15.15464844 198.03949219 -15.57101562 198.51257813 -16 199 C-16.66 199 -17.32 199 -18 199 C-18.24492188 199.56460938 -18.48984375 200.12921875 -18.7421875 200.7109375 C-20.226895 203.41292072 -22.01966335 205.37295 -24.125 207.625 C-28.12442484 211.96686348 -31.79560042 216.46897024 -35.37109375 221.1640625 C-36.17740234 222.07285156 -36.17740234 222.07285156 -37 223 C-37.66 223 -38.32 223 -39 223 C-39.26482178 223.58773193 -39.52964355 224.17546387 -39.80249023 224.78100586 C-41.03972651 227.0736135 -42.35313177 228.63663896 -44.16015625 230.50390625 C-44.7847876 231.15705811 -45.40941895 231.81020996 -46.05297852 232.4831543 C-46.71612061 233.16933838 -47.3792627 233.85552246 -48.0625 234.5625 C-52.59036814 239.30492839 -56.97934106 244.05558449 -61.0625 249.1875 C-63.27173264 251.96246137 -65.34495442 254.48088418 -68.125 256.6875 C-71.19650639 259.15805949 -73.53588185 261.83794513 -76.08203125 264.828125 C-78.13467527 267.15250398 -80.29064672 269.32440594 -82.5 271.5 C-86.54876948 275.50081451 -90.30026701 279.67818802 -94 284 C-95.43149905 285.67182371 -96.86905444 287.33847993 -98.3125 289 C-98.96863281 289.763125 -99.62476563 290.52625 -100.30078125 291.3125 C-102 293 -102 293 -104 293 C-104.33 293.99 -104.66 294.98 -105 296 C-105.66 296 -106.32 296 -107 296 C-107.27183105 296.59474121 -107.54366211 297.18948242 -107.82373047 297.80224609 C-108.97450794 299.95237038 -110.13655749 301.41637441 -111.8203125 303.1640625 C-112.35527344 303.72867187 -112.89023437 304.29328125 -113.44140625 304.875 C-114.57146063 306.04962729 -115.70167106 307.22410449 -116.83203125 308.3984375 C-119.93616477 311.21430153 -119.93616477 311.21430153 -121 315 C-119.329375 315.27263672 -119.329375 315.27263672 -117.625 315.55078125 C-113.56451437 316.2169932 -109.50657105 316.89754282 -105.44970703 317.58544922 C-103.91724933 317.84477882 -102.38442582 318.10196627 -100.85107422 318.35595703 C-90.90191113 320.0153586 -81.43119168 322.44950503 -71.81396484 325.44189453 C-69.53205472 326.14397347 -67.23463064 326.78722349 -64.9375 327.4375 C-52.49496145 331.21243966 -40.67689704 336.32932299 -29 342 C-29 342.66 -29 343.32 -29 344 C-28.13375 344.2475 -27.2675 344.495 -26.375 344.75 C-19.74971267 347.20381012 -14.69723836 351.77644189 -9.26953125 356.1953125 C-6.93175446 358.10594328 -6.93175446 358.10594328 -4 360 C-4 360.66 -4 361.32 -4 362 C-3.42765625 362.226875 -2.8553125 362.45375 -2.265625 362.6875 C0.62129471 364.35992245 2.19470494 366.38140185 4.25 369 C4.95640625 369.886875 5.6628125 370.77375 6.390625 371.6875 C8 374 8 374 8 376 C8.66 376 9.32 376 10 376 C11.70149896 378.98138756 13.35593275 381.98659214 15 385 C15.75603516 386.35738281 15.75603516 386.35738281 16.52734375 387.7421875 C24.04702071 401.86310759 26.03701942 416.05371199 26.125 431.8125 C26.12983398 432.61840576 26.13466797 433.42431152 26.13964844 434.25463867 C26.10616536 446.26669156 24.74822832 457.37308235 21.6875 469 C21.39166016 470.16789062 21.09582031 471.33578125 20.79101562 472.5390625 C17.72740305 484.47590286 14.3164192 495.86981917 9 507 C8.37051176 508.43554025 7.74534371 509.87298448 7.125 511.3125 C-0.17789243 527.68604849 -8.87952736 544.85410466 -20 559 C-20.66 559 -21.32 559 -22 559 C-22 559.99 -22 560.98 -22 562 C-22.66 562 -23.32 562 -24 562 C-24.26167969 562.55816406 -24.52335938 563.11632812 -24.79296875 563.69140625 C-26.13225989 566.25296309 -27.66301892 568.5638565 -29.3125 570.9375 C-29.88613281 571.77152344 -30.45976563 572.60554687 -31.05078125 573.46484375 C-33.17676637 576.22990256 -35.51877796 578.54828438 -38 581 C-39.77038181 582.79212891 -41.53986862 584.58514227 -43.30859375 586.37890625 C-44.82970022 587.91476144 -46.3517682 589.4496565 -47.87426758 590.98413086 C-48.91643263 592.03638716 -49.95680022 593.09042674 -50.99536133 594.14624023 C-52.51164692 595.68695501 -54.0344532 597.22096623 -55.55859375 598.75390625 C-56.90908813 600.12011108 -56.90908813 600.12011108 -58.28686523 601.51391602 C-61.03265385 604.02992118 -63.88049167 605.97767566 -67 608 C-68.67979975 609.65342927 -70.34624265 611.32052325 -72 613 C-74.03292937 614.64147955 -76.09624354 616.24600603 -78.1875 617.8125 C-79.23292969 618.60269531 -80.27835938 619.39289062 -81.35546875 620.20703125 C-84 622 -84 622 -86 622 C-86 622.66 -86 623.32 -86 624 C-87.32 624.33 -88.64 624.66 -90 625 C-90 625.66 -90 626.32 -90 627 C-92.125 628.55078125 -92.125 628.55078125 -95 630.3125 C-95.99902344 630.92867187 -96.99804688 631.54484375 -98.02734375 632.1796875 C-99.00832031 632.78039062 -99.98929688 633.38109375 -101 634 C-103.14854945 635.38194701 -105.29615221 636.7652876 -107.44140625 638.15234375 C-109 639 -109 639 -111 639 C-111 639.66 -111 640.32 -111 641 C-113.2734375 642.515625 -113.2734375 642.515625 -116.375 644.25 C-117.47199219 644.87261719 -118.56898438 645.49523437 -119.69921875 646.13671875 C-120.78847656 646.75160156 -121.87773437 647.36648438 -123 648 C-129.48268708 651.78858336 -135.79420099 655.77286154 -142 660 C-140.93221923 662.23305457 -139.97437089 664.03055778 -138.375 665.9375 C-136.67822011 668.48266983 -136.67550226 669.9983959 -137 673 C-138 674 -138 674 -141.25 674.1875 C-145.72024324 673.96398784 -148.38981669 673.62585419 -151.60546875 670.37890625 C-156.86579513 664.36888965 -156.86579513 664.36888965 -157.3125 659.8125 C-156.94546616 655.33468721 -155.92361388 652.35399359 -153 649 C-149.80738372 646.43317893 -146.43552883 644.22428469 -143 642 C-142.29875 641.43796875 -141.5975 640.8759375 -140.875 640.296875 C-139 639 -139 639 -136 639 C-136 638.34 -136 637.68 -136 637 C-134.6105957 635.90258789 -134.6105957 635.90258789 -132.67578125 634.72265625 C-131.97646484 634.29146484 -131.27714844 633.86027344 -130.55664062 633.41601562 C-129.81607422 632.96935547 -129.07550781 632.52269531 -128.3125 632.0625 C-127.59126953 631.61970703 -126.87003906 631.17691406 -126.12695312 630.72070312 C-123.15922667 628.90212372 -120.18525408 627.10655304 -117.16796875 625.37109375 C-115.10474709 624.06624546 -113.69339526 622.73737955 -112 621 C-110.33535697 619.74005138 -108.64580179 618.5125883 -106.9375 617.3125 C-106.05964844 616.68988281 -105.18179688 616.06726563 -104.27734375 615.42578125 C-102 614 -102 614 -100 614 C-100 613.34 -100 612.68 -100 612 C-99.0409375 611.8453125 -99.0409375 611.8453125 -98.0625 611.6875 C-97.381875 611.460625 -96.70125 611.23375 -96 611 C-95.67 610.01 -95.34 609.02 -95 608 C-92.96973301 606.28632686 -90.94918866 604.69394669 -88.8125 603.125 C-80.62084278 597.15252915 -80.62084278 597.15252915 -73.5 590 C-71.3494156 587.41929873 -69.19247873 585.48332895 -66.58984375 583.390625 C-60.59213792 578.14447445 -55.83108719 571.34884711 -50.91796875 565.125 C-50.28503906 564.42375 -49.65210938 563.7225 -49 563 C-48.34 563 -47.68 563 -47 563 C-46.773125 562.29875 -46.54625 561.5975 -46.3125 560.875 C-45.16851575 558.36912975 -44.19952808 556.91202668 -42.4375 554.875 C-39.85782237 552.19395804 -39.85782237 552.19395804 -39 549 C-38.34 549 -37.68 549 -37 549 C-36.690625 548.21625 -36.38125 547.4325 -36.0625 546.625 C-35 544 -35 544 -34 542 C-33.34 542 -32.68 542 -32 542 C-31.85304688 541.20142578 -31.85304688 541.20142578 -31.703125 540.38671875 C-30.78431861 537.2678815 -29.31564426 534.66129184 -27.75 531.8125 C-27.1209375 530.66136719 -26.491875 529.51023437 -25.84375 528.32421875 C-23.96425085 524.9355455 -22.07195677 521.5547417 -20.140625 518.1953125 C-18.58545666 515.20214604 -17.28879267 512.11413771 -16 509 C-15.70561035 508.29262695 -15.4112207 507.58525391 -15.10791016 506.85644531 C-9.65276816 493.56573573 -5.72994881 480.21148826 -2.53735352 466.21044922 C-2 464 -2 464 -1 461 C1.73166134 444.49710054 2.34326737 427.0298021 -3 411 C-3.32742188 410.01773437 -3.65484375 409.03546875 -3.9921875 408.0234375 C-8.44589269 396.13665193 -16.13950973 386.84635815 -26 379 C-26.71542969 378.4225 -27.43085937 377.845 -28.16796875 377.25 C-31.62358006 374.55293751 -34.76165409 372.3244831 -39 371 C-39 370.34 -39 369.68 -39 369 C-39.72960937 368.88269531 -40.45921875 368.76539063 -41.2109375 368.64453125 C-44.02811324 367.99350324 -46.08995274 367.05676466 -48.625 365.6875 C-58.36560693 360.70260116 -68.52638572 357.97620684 -79.11767578 355.45703125 C-81.71481881 354.82644088 -84.29247619 354.12521785 -86.875 353.4375 C-102.05531785 349.70265989 -117.60951043 348.13912676 -133.11962891 346.44555664 C-156.62635351 343.84000073 -156.62635351 343.84000073 -162.35546875 337.5 C-165.59416406 332.44903837 -166.68884163 326.70914726 -165.59375 320.8125 C-163.68327118 314.44423726 -160.30950922 308.73005641 -157 303 C-156.34 303 -155.68 303 -155 303 C-154.7421875 302.27425781 -154.484375 301.54851562 -154.21875 300.80078125 C-152.94757501 297.87952333 -151.45983598 295.69127351 -149.5 293.1875 C-148.8915625 292.39730469 -148.283125 291.60710937 -147.65625 290.79296875 C-147.1096875 290.20128906 -146.563125 289.60960937 -146 289 C-145.34 289 -144.68 289 -144 289 C-143.690625 288.38125 -143.38125 287.7625 -143.0625 287.125 C-142.375 285.75 -141.6875 284.375 -141 283 C-140.34 283 -139.68 283 -139 283 C-138.73445313 282.41605469 -138.46890625 281.83210938 -138.1953125 281.23046875 C-136.96345428 278.93180521 -135.61820023 277.24623607 -133.875 275.3125 C-133.25496094 274.61898438 -132.63492188 273.92546875 -131.99609375 273.2109375 C-131.00802734 272.11652344 -131.00802734 272.11652344 -130 271 C-128.64469639 269.48017977 -127.29053524 267.95934002 -125.9375 266.4375 C-125.27363281 265.695 -124.60976563 264.9525 -123.92578125 264.1875 C-122.1185866 262.13470284 -120.36986274 260.04322243 -118.625 257.9375 C-117.75875 256.968125 -116.8925 255.99875 -116 255 C-115.34 255 -114.68 255 -114 255 C-114 254.01 -114 253.02 -114 252 C-112.125 249.8125 -112.125 249.8125 -110 248 C-109.34 248 -108.68 248 -108 248 C-107.64421875 247.16662109 -107.64421875 247.16662109 -107.28125 246.31640625 C-105.6992626 243.45628879 -103.72337285 241.33051331 -101.5 238.9375 C-99.09463269 236.34079665 -96.96595796 233.94893694 -95 231 C-94.34 231 -93.68 231 -93 231 C-92.75121094 230.43152344 -92.50242187 229.86304688 -92.24609375 229.27734375 C-90.80755066 226.64828223 -89.10681389 224.7546847 -87.0625 222.5625 C-83.53662584 218.71609183 -80.10414664 214.80886528 -76.75 210.8125 C-71.97778375 205.1301894 -67.12937948 199.51794583 -62.23925781 193.93676758 C-61.45373535 193.03607544 -61.45373535 193.03607544 -60.65234375 192.1171875 C-59.95612915 191.32223877 -59.95612915 191.32223877 -59.24584961 190.51123047 C-57.79881758 188.80792794 -57.79881758 188.80792794 -56 186 C-55.34 186 -54.68 186 -54 186 C-53.938125 185.443125 -53.87625 184.88625 -53.8125 184.3125 C-52.66851791 181.05655096 -50.45123064 179.392868 -48 177 C-47.443125 176.071875 -46.88625 175.14375 -46.3125 174.1875 C-45.879375 173.465625 -45.44625 172.74375 -45 172 C-44.34 172 -43.68 172 -43 172 C-42.73429199 171.42491699 -42.46858398 170.84983398 -42.19482422 170.25732422 C-40.94912175 167.90387816 -39.5354008 165.96873973 -37.8828125 163.8828125 C-36.97208984 162.72458984 -36.97208984 162.72458984 -36.04296875 161.54296875 C-35.41003906 160.74503906 -34.77710938 159.94710937 -34.125 159.125 C-30.2195152 154.18878931 -26.43783893 149.27902463 -23 144 C-20.93100463 141.05080053 -18.81691839 138.1337837 -16.7109375 135.2109375 C-11.33476334 127.72387287 -6.59939295 119.98402688 -2 112 C-1.29197617 110.78497584 -0.5836363 109.5701358 0.125 108.35546875 C0.83360939 107.13297247 1.54194818 105.9103193 2.25 104.6875 C2.89453125 103.57761719 3.5390625 102.46773438 4.203125 101.32421875 C6.0269101 97.95021632 7.5351544 94.5427867 9 91 C9.350625 90.2265625 9.70125 89.453125 10.0625 88.65625 C14.15331812 79.24736833 18.05943048 67.19091983 15 57 C11.38035974 49.13121683 3.21835611 44.6219406 -4.625 41.6875 C-30.25141183 32.97451998 -56.54483957 40.4041556 -80.15405273 51.88769531 C-83.46140854 53.54444582 -86.7312651 55.2686516 -90 57 C-91.42668397 57.74295489 -92.85377614 58.48512639 -94.28125 59.2265625 C-107.31749462 66.02833637 -120.0225691 73.31131423 -132.52124023 81.05615234 C-136.91667473 83.77061331 -141.36824816 86.33512033 -145.89526367 88.82348633 C-148.82098863 90.45891941 -151.65965133 92.22119578 -154.5 94 C-169.03977273 103 -169.03977273 103 -172 103 C-172 103.66 -172 104.32 -172 105 C-182.7005538 111.02848101 -182.7005538 111.02848101 -189 110 C-191 108.9375 -191 108.9375 -192 107 C-192.29962929 99.80889695 -187.95612745 94.68604699 -184 89 C-183.57879883 88.38479492 -183.15759766 87.76958984 -182.72363281 87.13574219 C-181.38819826 85.18754451 -180.04065533 83.24842439 -178.6875 81.3125 C-178.03890015 80.37555298 -178.03890015 80.37555298 -177.37719727 79.41967773 C-176.30248975 77.90882637 -175.15695378 76.44883609 -174 75 C-173.34 75 -172.68 75 -172 75 C-171.63068359 74.15501953 -171.63068359 74.15501953 -171.25390625 73.29296875 C-163.73464815 59.54279895 -148.00978173 47.88671686 -135.6875 38.5 C-134.95200928 37.93901611 -134.21651855 37.37803223 -133.45874023 36.80004883 C-117.84318857 25 -117.84318857 25 -114 25 C-114 24.34 -114 23.68 -114 23 C-113.38253906 22.69707031 -112.76507813 22.39414063 -112.12890625 22.08203125 C-107.9092909 19.9947025 -103.75065911 17.87898721 -99.6875 15.5 C-94.05739464 12.33244513 -88.05579949 10.20671308 -82 8 C-81.03449219 7.63777344 -80.06898438 7.27554688 -79.07421875 6.90234375 C-73.11494915 4.68552917 -67.1190896 2.7261621 -61 1 C-59.783125 0.649375 -58.56625 0.29875 -57.3125 -0.0625 C-38.40497848 -4.52677591 -18.86955551 -4.33435303 0 0 Z " fill="#111111" transform="translate(618,73)"/>
<path d="M0 0 C1.13501953 0.66322266 1.13501953 0.66322266 2.29296875 1.33984375 C18.37857087 11.33451219 27.22702381 27.46725748 33 45 C33.30292969 45.86882812 33.60585938 46.73765625 33.91796875 47.6328125 C35.97891054 54.4252122 36.31043085 61.01370153 36.375 68.0625 C36.38885742 68.99175293 36.40271484 69.92100586 36.41699219 70.87841797 C36.41086914 71.7551416 36.40474609 72.63186523 36.3984375 73.53515625 C36.39505371 74.322854 36.39166992 75.11055176 36.38818359 75.92211914 C35.9009312 78.53029844 35.09392535 79.41055681 33 81 C30.125 81.5625 30.125 81.5625 27 81 C24.29809837 78.29809837 22.50080453 75.83692402 20.55078125 72.578125 C17.93152849 68.22369976 14.95706471 64.12959521 12 60 C11.28199219 58.98679687 10.56398438 57.97359375 9.82421875 56.9296875 C4.06583531 48.99326266 -1.56555263 43.00795312 -10 38 C-10 37.34 -10 36.68 -10 36 C-10.928125 35.855625 -11.85625 35.71125 -12.8125 35.5625 C-16 35 -16 35 -19 34 C-31.23226099 32.58412159 -41.39560993 37.42171741 -50.97265625 44.59765625 C-59.85538399 51.64653052 -66.2690971 60.04285801 -72.75585938 69.23876953 C-73.85219705 70.79076717 -74.96398722 72.33182445 -76.078125 73.87109375 C-79.80148895 79.05952048 -83.00893973 84.36264341 -86 90 C-87.03957958 91.91779948 -88.08131125 93.83443367 -89.125 95.75 C-89.60195313 96.63171875 -90.07890625 97.5134375 -90.5703125 98.421875 C-91.50212715 100.1021965 -92.47480793 101.76068705 -93.4921875 103.390625 C-95.28792266 106.49827029 -96.62415287 109.68529924 -98 113 C-98.55822979 114.29035062 -99.11949862 115.57939019 -99.68359375 116.8671875 C-99.97169922 117.52589844 -100.25980469 118.18460937 -100.55664062 118.86328125 C-100.99266602 119.85908203 -100.99266602 119.85908203 -101.4375 120.875 C-101.72431641 121.53113281 -102.01113281 122.18726563 -102.30664062 122.86328125 C-102.59603516 123.52457031 -102.88542969 124.18585938 -103.18359375 124.8671875 C-103.47838623 125.54249512 -103.77317871 126.21780273 -104.0769043 126.91357422 C-104.69974872 128.32135746 -105.33433746 129.72399514 -105.97973633 131.12158203 C-108.67489511 136.99918953 -110.80222796 142.98253018 -112.8125 149.125 C-113.32526489 150.68130127 -113.32526489 150.68130127 -113.84838867 152.26904297 C-121.50083216 175.34815178 -121.50083216 175.34815178 -127 199 C-127.16097168 199.79792969 -127.32194336 200.59585938 -127.48779297 201.41796875 C-134.93083623 238.33007469 -135.6601283 277.93665147 -118.015625 311.94140625 C-117 314 -117 314 -116 317 C-115.34 317 -114.68 317 -114 317 C-113.278125 317.9075 -112.55625 318.815 -111.8125 319.75 C-108.97629909 323.30783782 -106.0429688 324.94176134 -102 327 C-101.36843994 327.35989014 -100.73687988 327.71978027 -100.08618164 328.09057617 C-96.10122836 329.82772666 -91.72028912 329.33733805 -87.4375 329.3125 C-86.44186035 329.30686035 -85.4462207 329.3012207 -84.42041016 329.29541016 C-72.28898105 329.09457843 -63.6395243 325.67540084 -53 320 C-45.39143731 316 -45.39143731 316 -42 316 C-42 315.34 -42 314.68 -42 314 C-41.33355469 313.6596875 -40.66710937 313.319375 -39.98046875 312.96875 C-32.82904378 309.20800064 -26.44118753 304.8602509 -20 300 C-17.9832557 298.4945068 -15.96251991 296.99434324 -13.9375 295.5 C-13.03902344 294.8296875 -12.14054688 294.159375 -11.21484375 293.46875 C-9 292 -9 292 -7 292 C-6.67 291.01 -6.34 290.02 -6 289 C-5.01 289 -4.02 289 -3 289 C-2.77054688 288.42378906 -2.54109375 287.84757812 -2.3046875 287.25390625 C-0.65752903 284.40836602 1.27775697 282.95130438 3.875 280.9375 C9.20320381 276.70154296 14.20025909 272.22104063 19.17578125 267.578125 C21.15732241 265.76924925 23.13450221 264.04686598 25.20703125 262.3515625 C27.69391167 260.25771353 29.59036044 258.10518065 31.61328125 255.578125 C33.1476919 253.83192245 34.79090739 252.37994052 36.5625 250.875 C44.54146781 244.05963167 51.98384811 236.48955563 58.6953125 228.42578125 C60.75812853 226.17150624 61.91624128 226.00523492 65 225.8125 C68 226 68 226 70 228 C70.52487381 232.69146465 69.77206109 235.03703646 66.9375 238.75 C65.98617187 240.02230469 65.98617187 240.02230469 65.015625 241.3203125 C64.35046875 242.20460938 63.6853125 243.08890625 63 244 C61.15054187 246.71500454 59.31333135 249.43783666 57.48046875 252.1640625 C56.99191406 252.76992188 56.50335938 253.37578125 56 254 C55.34 254 54.68 254 54 254 C53.773125 254.52078125 53.54625 255.0415625 53.3125 255.578125 C51.52480639 258.87684535 49.28109676 261.78457421 47 264.75 C46.54882812 265.35199219 46.09765625 265.95398438 45.6328125 266.57421875 C44.47177498 268.08906356 43.24072061 269.54969821 42 271 C41.34 271 40.68 271 40 271 C39.74734375 271.57105469 39.4946875 272.14210938 39.234375 272.73046875 C37.01280232 276.81506915 33.64405911 279.99044445 30.49658203 283.38134766 C28.7987106 285.21770779 27.11654501 287.06792863 25.43359375 288.91796875 C24.1854339 290.27913942 22.93673681 291.63981766 21.6875 293 C20.7898291 293.98867065 20.7898291 293.98867065 19.87402344 294.99731445 C19.01405762 295.9267688 19.01405762 295.9267688 18.13671875 296.875 C17.62842529 297.42929687 17.12013184 297.98359375 16.59643555 298.5546875 C14.85291378 300.13316262 13.0940904 300.95689361 11 302 C9.73195434 304.0335948 9.73195434 304.0335948 9 306 C8.34 306 7.68 306 7 306 C6.67 306.99 6.34 307.98 6 309 C4.609375 310.4375 4.609375 310.4375 2.75 312 C2.03972656 312.60328125 1.32945312 313.2065625 0.59765625 313.828125 C-0.25957031 314.54484375 -1.11679687 315.2615625 -2 316 C-3.68911706 317.42295628 -5.37663811 318.84778085 -7.06347656 320.2734375 C-8.21342951 321.24425205 -9.3650768 322.21306378 -10.51855469 323.1796875 C-12.67311284 324.99132799 -14.78071671 326.76408143 -16.69921875 328.828125 C-18 330 -18 330 -21 330 C-21 330.66 -21 331.32 -21 332 C-22.8984375 333.5078125 -22.8984375 333.5078125 -25.375 335.125 C-26.18710937 335.66382813 -26.99921875 336.20265625 -27.8359375 336.7578125 C-30 338 -30 338 -32 338 C-32 338.66 -32 339.32 -32 340 C-50.35612465 354.1680768 -76.80890372 363.54853422 -100 361 C-119.96143973 357.65234012 -135.35384635 346.29958437 -147 330 C-161.54120238 308.27413734 -167.2017045 282.59786571 -170 257 C-170.13277344 255.79601562 -170.26554688 254.59203125 -170.40234375 253.3515625 C-173.58128561 218.77512634 -167.8695116 182.37915436 -159 149 C-158.55527344 147.31003906 -158.55527344 147.31003906 -158.1015625 145.5859375 C-155.25858349 135.21027908 -151.64749778 125.11499523 -148 115 C-147.73928711 114.2692627 -147.47857422 113.53852539 -147.20996094 112.78564453 C-141.7512496 97.52331536 -134.83701175 83.17630128 -127 69 C-126.44699219 67.99453125 -125.89398438 66.9890625 -125.32421875 65.953125 C-118.06709538 53.1362484 -109.55682693 41.19301519 -100 30 C-99.39929688 29.26523437 -98.79859375 28.53046875 -98.1796875 27.7734375 C-96.8340867 26.14181528 -95.42436886 24.56333167 -94 23 C-93.34 23 -92.68 23 -92 23 C-91.773125 22.42894531 -91.54625 21.85789062 -91.3125 21.26953125 C-88.52584909 16.45094739 -83.34917084 13.34988354 -79 10 C-78.17757812 9.36320312 -77.35515625 8.72640625 -76.5078125 8.0703125 C-70.11909008 3.35732055 -63.29467193 0.08804592 -56 -3 C-55.2059375 -3.35191406 -54.411875 -3.70382812 -53.59375 -4.06640625 C-36.13667009 -10.34990339 -16.02188241 -9.71274737 0 0 Z " fill="#0D0D0D" transform="translate(396,281)"/>
<path d="M0 0 C0.33 0 0.66 0 1 0 C0.60505701 8.39773511 0.10940269 16.72542154 -1 25.0625 C-3.08558646 40.9421204 -3.0090299 56.51906385 -2.5625 72.5 C-2.50912639 74.5950359 -2.45638781 76.69008807 -2.40429688 78.78515625 C-2.27683522 83.85698784 -2.14083888 88.92852298 -2 94 C-2.33 94 -2.66 94 -3 94 C-7.67078693 63.75325358 -7.97515697 29.81422801 0 0 Z " fill="#A7A7A7" transform="translate(231,458)"/>
<path d="M0 0 C0.66 0.33 1.32 0.66 2 1 C1.28714844 1.6290625 0.57429688 2.258125 -0.16015625 2.90625 C-5.13531574 7.35242215 -9.86226157 11.81058794 -14.1796875 16.91015625 C-16.43672545 19.5013908 -18.79103546 21.97466108 -21.1875 24.4375 C-22.00605469 25.28183594 -22.82460938 26.12617188 -23.66796875 26.99609375 C-25.91328687 28.92548771 -27.11218579 29.63487407 -30 30 C-30 28 -30 28 -27.83203125 25.7109375 C-26.89746094 24.81632812 -25.96289062 23.92171875 -25 23 C-23.70642578 21.68902344 -23.70642578 21.68902344 -22.38671875 20.3515625 C-17.10211449 15.0134239 -11.75872496 9.83030307 -6 5 C-5.39800781 4.49339844 -4.79601562 3.98679687 -4.17578125 3.46484375 C-2.78869396 2.30408772 -1.39517645 1.15102057 0 0 Z " fill="#878787" transform="translate(480,113)"/>
<path d="M0 0 C2 2 2 2 2.125 5.125 C2.08375 6.07375 2.0425 7.0225 2 8 C1.67 8 1.34 8 1 8 C0.34 6.02 -0.32 4.04 -1 2 C-4.55027968 2.58653795 -6.28823969 3.88078013 -8.86328125 6.3515625 C-9.94706055 7.38216797 -9.94706055 7.38216797 -11.05273438 8.43359375 C-11.79845703 9.15675781 -12.54417969 9.87992188 -13.3125 10.625 C-14.04662109 11.32496094 -14.78074219 12.02492188 -15.53710938 12.74609375 C-19.6396218 16.67023607 -23.65852826 20.65672091 -27.57885742 24.76318359 C-29 26 -29 26 -31 26 C-31.33 26.99 -31.66 27.98 -32 29 C-32.66 29 -33.32 29 -34 29 C-34 29.66 -34 30.32 -34 31 C-34.66 30.67 -35.32 30.34 -36 30 C-33.71198828 26.85398388 -31.2532225 24.26810369 -28.3125 21.75 C-21.45028079 15.86991997 -15.21762164 9.45078324 -9.41015625 2.53125 C-6.60586586 -0.51385203 -3.96893275 -0.2480583 0 0 Z " fill="#969696" transform="translate(464,507)"/>
<path d="M0 0 C0.66 0.33 1.32 0.66 2 1 C1.40574219 1.54785156 0.81148438 2.09570312 0.19921875 2.66015625 C-6.72802772 9.28574969 -12.27686539 16.43154778 -17.77197266 24.25488281 C-18.86013974 25.80124828 -19.96591879 27.33518719 -21.07421875 28.8671875 C-24.4093052 33.51171136 -27.33813795 38.1993191 -29.95703125 43.28515625 C-31 45 -31 45 -33 46 C-31.45522293 39.81066141 -27.96887513 35.01899091 -24.4375 29.8125 C-23.80634277 28.87575439 -23.17518555 27.93900879 -22.52490234 26.97387695 C-15.82835444 17.1308923 -8.64518716 8.22117253 0 0 Z " fill="#C4C4C4" transform="translate(341,326)"/>
<path d="M0 0 C0 0.66 0 1.32 0 2 C-0.99 2.33 -1.98 2.66 -3 3 C-9.87251049 9.58588011 -9.87251049 9.58588011 -13.171875 18.08203125 C-13.18569945 20.05547086 -13.10021738 22.02905822 -13 24 C-14.5 22.9375 -14.5 22.9375 -16 21 C-16.62837534 16.33206888 -16.07324897 12.81404998 -13.546875 8.77734375 C-10.45327804 5.22283209 -4.90982482 0 0 0 Z " fill="#737373" transform="translate(477,715)"/>
<path d="M0 0 C0.33 0.66 0.66 1.32 1 2 C0.11008657 4.48998956 -0.83431362 6.88654441 -1.875 9.3125 C-3.64906772 13.4884448 -5.31838415 17.48211035 -6 22 C-6.66 22 -7.32 22 -8 22 C-8.103125 22.825 -8.20625 23.65 -8.3125 24.5 C-9.09807467 28.49928924 -10.1747109 32.34068836 -12 36 C-12.99 36.495 -12.99 36.495 -14 37 C-12.78791424 30.75338006 -11.04916131 24.96633319 -8.6875 19.0625 C-8.38062256 18.28342285 -8.07374512 17.5043457 -7.75756836 16.70166016 C-5.47080308 10.97730112 -2.95282917 5.41578806 0 0 Z " fill="#AFAFAF" transform="translate(259,370)"/>
<path d="M0 0 C10.89 0 21.78 0 33 0 C27.32352189 2.83823906 22.46780337 3.19337493 16.1875 3.1875 C15.12499023 3.1884668 15.12499023 3.1884668 14.04101562 3.18945312 C9.02417101 3.13868469 4.74242947 2.58080982 0 1 C0 0.67 0 0.34 0 0 Z " fill="#B0B0B0" transform="translate(288,639)"/>
<path d="M0 0 C1.45002516 4.77171399 -0.03357399 7.95976731 -2.125 12.375 C-2.41375 12.91125 -2.7025 13.4475 -3 14 C-3.66 14 -4.32 14 -5 14 C-5.103125 14.680625 -5.20625 15.36125 -5.3125 16.0625 C-6.14725019 19.62915989 -7.49472754 22.66222194 -9 26 C-9.66 26 -10.32 26 -11 26 C-11.66 27.32 -12.32 28.64 -13 30 C-12.58162699 25.53735459 -10.64090627 22.68524573 -8.26171875 19.03125 C-6.47150203 16.14916735 -5.24952668 13.15098033 -4 10 C-3.64679687 9.12214844 -3.29359375 8.24429688 -2.9296875 7.33984375 C-1.94656135 4.8957784 -0.97073354 2.44900796 0 0 Z " fill="#C1C1C1" transform="translate(631,154)"/>
<path d="M0 0 C1.2408082 4.16221196 0.57691118 7.62771117 -0.25 11.8125 C-0.37246094 12.49892578 -0.49492188 13.18535156 -0.62109375 13.89257812 C-1.5209072 18.60100793 -2.97756283 22.65403248 -5 27 C-5.33 27 -5.66 27 -6 27 C-5.37547911 20.79786153 -4.0842258 15.00570586 -2.4375 9 C-2.20353516 8.12988281 -1.96957031 7.25976562 -1.72851562 6.36328125 C-1.15709256 4.24085272 -0.58085043 2.11986406 0 0 Z " fill="#C6C6C6" transform="translate(617,534)"/>
<path d="M0 0 C0.66 0.33 1.32 0.66 2 1 C0.21079529 2.6485816 -1.5812005 4.29393121 -3.375 5.9375 C-3.88289063 6.40607422 -4.39078125 6.87464844 -4.9140625 7.35742188 C-8.7734375 10.88671875 -8.7734375 10.88671875 -11 12 C-11.28875 12.66 -11.5775 13.32 -11.875 14 C-13 16 -13 16 -15.125 16.75 C-16.053125 16.87375 -16.053125 16.87375 -17 17 C-16.505 15.515 -16.505 15.515 -16 14 C-15.34 14 -14.68 14 -14 14 C-13.78472656 13.43667969 -13.56945312 12.87335938 -13.34765625 12.29296875 C-11.54288781 9.22224679 -9.22646735 7.51240254 -6.4375 5.3125 C-5.44621094 4.52488281 -4.45492188 3.73726563 -3.43359375 2.92578125 C-2.22896484 1.97251953 -2.22896484 1.97251953 -1 1 C-0.67 0.67 -0.34 0.34 0 0 Z " fill="#B8B8B8" transform="translate(318,290)"/>
<path d="M0 0 C0.66 0.33 1.32 0.66 2 1 C1.45730469 1.45890625 0.91460937 1.9178125 0.35546875 2.390625 C-0.35996094 3.00421875 -1.07539063 3.6178125 -1.8125 4.25 C-2.52019531 4.85328125 -3.22789062 5.4565625 -3.95703125 6.078125 C-6.06255232 7.92997574 -6.06255232 7.92997574 -7.57421875 10.234375 C-8.04472656 10.81703125 -8.51523437 11.3996875 -9 12 C-9.99 12 -10.98 12 -12 12 C-11.67 11.01 -11.34 10.02 -11 9 C-10.01 9 -9.02 9 -8 9 C-7.79375 8.443125 -7.5875 7.88625 -7.375 7.3125 C-5.44999226 4.07498698 -2.96149098 2.31768859 0 0 Z " fill="#AFAFAF" transform="translate(401,561)"/>
<path d="M0 0 C1.34774714 2.69549428 0.91559777 4.51548235 0.625 7.5 C0.53476562 8.4796875 0.44453125 9.459375 0.3515625 10.46875 C0 13 0 13 -1 15 C-3.48386059 11.27420911 -3.3804212 9.41288598 -3 5 C-1.5 2.0625 -1.5 2.0625 0 0 Z " fill="#B1B1B1" transform="translate(464,724)"/>
<path d="M0 0 C3.68428193 3.28953744 5.8406504 6.60132489 8 11 C7.67 11.99 7.34 12.98 7 14 C6.34 12.02 5.68 10.04 5 8 C4.34 8 3.68 8 3 8 C0 2.25 0 2.25 0 0 Z " fill="#BCBCBC" transform="translate(628,452)"/>
<path d="M0 0 C1.18771723 3.42943519 0.80226223 5.37784675 -0.4375 8.75 C-0.86869141 9.94882812 -0.86869141 9.94882812 -1.30859375 11.171875 C-1.65083984 12.07679688 -1.65083984 12.07679688 -2 13 C-2.33 13 -2.66 13 -3 13 C-2.88490339 11.58249437 -2.75746342 10.16598831 -2.625 8.75 C-2.55539063 7.96109375 -2.48578125 7.1721875 -2.4140625 6.359375 C-1.98492887 3.914123 -1.21399362 2.15163097 0 0 Z " fill="#B1B1B1" transform="translate(242,414)"/>
<path d="M0 0 C1.59373901 2.39060851 2.65297076 4.30828179 3.6875 6.9375 C3.95949219 7.60652344 4.23148437 8.27554687 4.51171875 8.96484375 C5.0787676 11.32830338 4.76024003 12.7192799 4 15 C1.0554321 10.00703705 0.36504064 5.66442374 0 0 Z " fill="#B8B8B8" transform="translate(424,315)"/>
<path d="M0 0 C1.20284062 3.98655749 0.61262471 6.12970069 -1 10 C-2.625 12.375 -2.625 12.375 -4 14 C-3.36843005 8.94744036 -1.86540627 4.70406799 0 0 Z " fill="#9A9A9A" transform="translate(631,154)"/>
<path d="M0 0 C0.66 0 1.32 0 2 0 C2 0.99 2 1.98 2 3 C1.34 3 0.68 3 0 3 C0 3.99 0 4.98 0 6 C-0.66 6 -1.32 6 -2 6 C-2.33 7.32 -2.66 8.64 -3 10 C-3.66 10 -4.32 10 -5 10 C-5 9.01 -5 8.02 -5 7 C-4.34 7 -3.68 7 -3 7 C-2.690625 6.21625 -2.38125 5.4325 -2.0625 4.625 C-1 2 -1 2 0 0 Z " fill="#9A9A9A" transform="translate(584,615)"/>
<path d="M0 0 C0.33 0 0.66 0 1 0 C1.1799928 5.21979128 0.97094808 9.07262981 -1 14 C-1.33 14 -1.66 14 -2 14 C-2.21192221 8.80790596 -1.5912689 4.873261 0 0 Z " fill="#BBBBBB" transform="translate(234,443)"/>
<path d="M0 0 C0.99 0 1.98 0 3 0 C2 3 2 3 0.22265625 4.203125 C-0.49019531 4.54859375 -1.20304687 4.8940625 -1.9375 5.25 C-3.00291016 5.78367187 -3.00291016 5.78367187 -4.08984375 6.328125 C-5.03537109 6.66070312 -5.03537109 6.66070312 -6 7 C-6.66 6.67 -7.32 6.34 -8 6 C-2.25 2 -2.25 2 0 2 C0 1.34 0 0.68 0 0 Z " fill="#A1A1A1" transform="translate(504,96)"/>
<path d="M0 0 C0.66 0 1.32 0 2 0 C1.32829194 3.8063457 0.27253436 7.35206816 -1 11 C-1.33 11 -1.66 11 -2 11 C-1.125 3.375 -1.125 3.375 0 0 Z " fill="#A4A4A4" transform="translate(613,550)"/>
<path d="M0 0 C3.87302138 1.14430177 7.00263439 2.23320098 10 5 C10 5.66 10 6.32 10 7 C6.42032008 5.34784004 3.22017048 3.26875648 0 1 C0 0.67 0 0.34 0 0 Z " fill="#CBCBCB" transform="translate(643,85)"/>
</svg>
